# xmcd CD database file
#
# Track frame offsets:
#	150
#	23062
#	58146
#	89731
#	116739
#	146956
#	183437
#	208033
#
# Disc length: 3515 seconds
#
# Revision: 0
# Processed by: cddbd v1.5.1PL2 Copyright (c) Steve Scherf et al.
# Submitted via: CDex 1.51
#
DISCID=7b0db908
DTITLE=Stan Bann Big Band - Stratford Blue
DYEAR=1999
DGENRE=Jazz
TTITLE0=Sentimental Journey
TTITLE1=Tangerine
TTITLE2=Stratford Blue
TTITLE3=The Phone Goddess
TTITLE4=At Sunsets
TTITLE5=Angel Eyes
TTITLE6=Gettin' Sentimental Over You
TTITLE7=Sax Noir
EXTD=YEAR: 1999
EXTT0=
EXTT1=
EXTT2=
EXTT3=
EXTT4=
EXTT5=
EXTT6=
EXTT7=
PLAYORDER=
